<svg width="24" height="24" viewBox="0 0 24 24" fill="none" xmlns="http://www.w3.org/2000/svg">
<path d="M1.125 5H22.875C23.1734 5 23.4595 5.11853 23.6705 5.3295C23.8815 5.54048 24 5.82663 24 6.125C24 6.42337 23.8815 6.70952 23.6705 6.9205C23.4595 7.13147 23.1734 7.25 22.875 7.25H1.125C0.826631 7.25 0.540483 7.13147 0.329505 6.9205C0.118526 6.70952 0 6.42337 0 6.125C0 5.82663 0.118526 5.54048 0.329505 5.3295C0.540483 5.11853 0.826631 5 1.125 5ZM4.5 12.125C4.5 11.8266 4.61853 11.5405 4.8295 11.3295C5.04048 11.1185 5.32663 11 5.625 11H18.375C18.6734 11 18.9595 11.1185 19.1705 11.3295C19.3815 11.5405 19.5 11.8266 19.5 12.125C19.5 12.4234 19.3815 12.7095 19.1705 12.9205C18.9595 13.1315 18.6734 13.25 18.375 13.25H5.625C5.32663 13.25 5.04048 13.1315 4.8295 12.9205C4.61853 12.7095 4.5 12.4234 4.5 12.125ZM9 18.125C9 17.8266 9.11853 17.5405 9.3295 17.3295C9.54048 17.1185 9.82663 17 10.125 17H13.875C14.1734 17 14.4595 17.1185 14.6705 17.3295C14.8815 17.5405 15 17.8266 15 18.125C15 18.4234 14.8815 18.7095 14.6705 18.9205C14.4595 19.1315 14.1734 19.25 13.875 19.25H10.125C9.82663 19.25 9.54048 19.1315 9.3295 18.9205C9.11853 18.7095 9 18.4234 9 18.125Z" fill="#2A0800"/>
</svg>
