<svg width="40" height="44" viewBox="0 0 40 44" fill="none"
    xmlns="http://www.w3.org/2000/svg">
    <path d="M20 0L40 11.001V32.999L20 44L0 32.999V11.001L20 0ZM20 4.5558L4.14079 13.2769V30.7231L20 39.4442L35.8592 30.7231V13.2769L20 4.5558ZM20 16.0834C18.3527 16.0834 16.7729 16.7067 15.608 17.8163C14.4432 18.9259 13.7888 20.4308 13.7888 22C13.7888 23.5692 14.4432 25.0741 15.608 26.1837C16.7729 27.2933 18.3527 27.9166 20 27.9166C21.6473 27.9166 23.2271 27.2933 24.392 26.1837C25.5568 25.0741 26.2112 23.5692 26.2112 22C26.2112 20.4308 25.5568 18.9259 24.392 17.8163C23.2271 16.7067 21.6473 16.0834 20 16.0834ZM9.64803 22C9.64803 19.3847 10.7387 16.8765 12.6801 15.0272C14.6214 13.1779 17.2545 12.139 20 12.139C22.7455 12.139 25.3786 13.1779 27.3199 15.0272C29.2613 16.8765 30.352 19.3847 30.352 22C30.352 24.6153 29.2613 27.1235 27.3199 28.9728C25.3786 30.8221 22.7455 31.861 20 31.861C17.2545 31.861 14.6214 30.8221 12.6801 28.9728C10.7387 27.1235 9.64803 24.6153 9.64803 22Z" fill="black"/>
</svg>
